<svg width="18" height="16" fill="none" xmlns="http://www.w3.org/2000/svg"><path fill-rule="evenodd" clip-rule="evenodd" d="M3.09 2.913h13.65c.466 0 .808.44.695.89L15.98 9.63a.717.717 0 0 1-.654.542l-11.457.674c.204.478.679.807 1.224.807h8.006c1.199 0 2.174.975 2.174 2.173A2.176 2.176 0 0 1 13.098 16c-1.502 0-2.557-1.498-2.044-2.913H7.131C7.645 14.504 6.587 16 5.087 16c-1.808 0-2.823-2.092-1.712-3.51-.616-.49-.974-1.207-1.032-1.87L1.56 1.895v.006l-.042-.467H.717A.717.717 0 1 1 .717 0h1.457c.37 0 .68.283.714.653l.203 2.26Zm1.257 10.913a.74.74 0 1 0 1.481-.001.74.74 0 0 0-1.48.001Zm8.751.74a.74.74 0 1 1 .002-1.48.74.74 0 0 1-.002 1.48ZM3.675 9.421l11.04-.65 1.107-4.424H3.219l.456 5.074Z" fill="#fff"/></svg>